<svg id="Layer_1" data-name="Layer 1" xmlns="http://www.w3.org/2000/svg" viewBox="0 0 202 69"><defs><style>.cls-1{fill:#2e3192;}.cls-2{fill:none;stroke:#fff;stroke-linecap:round;stroke-linejoin:round;stroke-width:6px;}.cls-3{fill:#fff;}</style></defs><rect class="cls-1" width="69" height="69" rx="8.76"/><rect class="cls-1" x="133" width="69" height="69" rx="8.76"/><polyline class="cls-2" points="11.16 46.5 34.5 23.16 57.84 46.5"/><path class="cls-3" d="M399.15,249.14c6.18-3.87,10.18-10,10.18-16.92,0-11.72-11.49-21.22-25.67-21.22S358,220.5,358,232.22s11.49,21.23,25.66,21.23a30.22,30.22,0,0,0,9.92-1.65c10.16,6.86,18.73,6.05,18.73,6.05C404.8,254.27,401,251.39,399.15,249.14ZM371.5,235a3.5,3.5,0,1,1,3.5-3.5A3.5,3.5,0,0,1,371.5,235Zm12,0a3.5,3.5,0,1,1,3.5-3.5A3.5,3.5,0,0,1,383.5,235Zm12,0a3.5,3.5,0,1,1,3.5-3.5A3.5,3.5,0,0,1,395.5,235Z" transform="translate(-216 -197)"/></svg>